<?xml version="1.0" encoding="UTF-8" standalone="no"?>
<!DOCTYPE svg PUBLIC "-//W3C//DTD SVG 1.1//EN" "http://www.w3.org/Graphics/SVG/1.1/DTD/svg11.dtd">
<!-- Generated by graphviz version 2.40.1 (20161225.0304)
 -->
<!-- Title: %0 Pages: 1 -->
<svg width="1220pt" height="404pt" viewBox="0.00 0.00 1220.40 404.00" xmlns="http://www.w3.org/2000/svg" xmlns:xlink="http://www.w3.org/1999/xlink">
<g id="graph0" class="graph" transform="scale(1 1) rotate(0) translate(4 400)">
<title>%0</title>
<polygon fill="#ffffff" stroke="transparent" points="-4,4 -4,-400 1216.4031,-400 1216.4031,4 -4,4"/>
<!-- [root] aws_instance.my&#45;demo&#45;vm (expand) -->
<g id="node1" class="node">
<title>[root] aws_instance.my-demo-vm (expand)</title>
<polygon fill="none" stroke="#000000" points="989.3881,-252 818.7014,-252 818.7014,-216 989.3881,-216 989.3881,-252"/>
<text text-anchor="middle" x="904.0447" y="-229.8" font-family="Times,serif" font-size="14.00" fill="#000000">aws_instance.my-demo-vm</text>
</g>
<!-- [root] data.aws_ami.amzlinux (expand) -->
<g id="node5" class="node">
<title>[root] data.aws_ami.amzlinux (expand)</title>
<polygon fill="none" stroke="#000000" points="829.2272,-180 680.8622,-180 680.8622,-144 829.2272,-144 829.2272,-180"/>
<text text-anchor="middle" x="755.0447" y="-157.8" font-family="Times,serif" font-size="14.00" fill="#000000">data.aws_ami.amzlinux</text>
</g>
<!-- [root] aws_instance.my&#45;demo&#45;vm (expand)&#45;&gt;[root] data.aws_ami.amzlinux (expand) -->
<g id="edge1" class="edge">
<title>[root] aws_instance.my-demo-vm (expand)-&gt;[root] data.aws_ami.amzlinux (expand)</title>
<path fill="none" stroke="#000000" d="M866.4457,-215.8314C846.695,-206.2874 822.3151,-194.5065 801.4031,-184.4013"/>
<polygon fill="#000000" stroke="#000000" points="802.9001,-181.2376 792.3733,-180.038 799.8544,-187.5403 802.9001,-181.2376"/>
</g>
<!-- [root] var.instance_type -->
<g id="node8" class="node">
<title>[root] var.instance_type</title>
<polygon fill="none" stroke="#000000" points="955.3953,-180 846.6942,-180 846.6942,-144 961.3953,-144 961.3953,-174 955.3953,-180"/>
<polyline fill="none" stroke="#000000" points="955.3953,-180 955.3953,-174 "/>
<polyline fill="none" stroke="#000000" points="961.3953,-174 955.3953,-174 "/>
<text text-anchor="middle" x="904.0447" y="-157.8" font-family="Times,serif" font-size="14.00" fill="#000000">var.instance_type</text>
</g>
<!-- [root] aws_instance.my&#45;demo&#45;vm (expand)&#45;&gt;[root] var.instance_type -->
<g id="edge2" class="edge">
<title>[root] aws_instance.my-demo-vm (expand)-&gt;[root] var.instance_type</title>
<path fill="none" stroke="#000000" d="M904.0447,-215.8314C904.0447,-208.131 904.0447,-198.9743 904.0447,-190.4166"/>
<polygon fill="#000000" stroke="#000000" points="907.5448,-190.4132 904.0447,-180.4133 900.5448,-190.4133 907.5448,-190.4132"/>
</g>
<!-- [root] aws_instance.my&#45;ec2&#45;vm (expand) -->
<g id="node2" class="node">
<title>[root] aws_instance.my-ec2-vm (expand)</title>
<polygon fill="none" stroke="#000000" points="654.2121,-252 495.8774,-252 495.8774,-216 654.2121,-216 654.2121,-252"/>
<text text-anchor="middle" x="575.0447" y="-229.8" font-family="Times,serif" font-size="14.00" fill="#000000">aws_instance.my-ec2-vm</text>
</g>
<!-- [root] aws_security_group.vpc&#45;ssh (expand) -->
<g id="node3" class="node">
<title>[root] aws_security_group.vpc-ssh (expand)</title>
<polygon fill="none" stroke="#000000" points="662.5511,-180 487.5383,-180 487.5383,-144 662.5511,-144 662.5511,-180"/>
<text text-anchor="middle" x="575.0447" y="-157.8" font-family="Times,serif" font-size="14.00" fill="#000000">aws_security_group.vpc-ssh</text>
</g>
<!-- [root] aws_instance.my&#45;ec2&#45;vm (expand)&#45;&gt;[root] aws_security_group.vpc&#45;ssh (expand) -->
<g id="edge3" class="edge">
<title>[root] aws_instance.my-ec2-vm (expand)-&gt;[root] aws_security_group.vpc-ssh (expand)</title>
<path fill="none" stroke="#000000" d="M575.0447,-215.8314C575.0447,-208.131 575.0447,-198.9743 575.0447,-190.4166"/>
<polygon fill="#000000" stroke="#000000" points="578.5448,-190.4132 575.0447,-180.4133 571.5448,-190.4133 578.5448,-190.4132"/>
</g>
<!-- [root] aws_security_group.vpc&#45;web (expand) -->
<g id="node4" class="node">
<title>[root] aws_security_group.vpc-web (expand)</title>
<polygon fill="none" stroke="#000000" points="469.4837,-180 288.6058,-180 288.6058,-144 469.4837,-144 469.4837,-180"/>
<text text-anchor="middle" x="379.0447" y="-157.8" font-family="Times,serif" font-size="14.00" fill="#000000">aws_security_group.vpc-web</text>
</g>
<!-- [root] aws_instance.my&#45;ec2&#45;vm (expand)&#45;&gt;[root] aws_security_group.vpc&#45;web (expand) -->
<g id="edge4" class="edge">
<title>[root] aws_instance.my-ec2-vm (expand)-&gt;[root] aws_security_group.vpc-web (expand)</title>
<path fill="none" stroke="#000000" d="M525.8386,-215.9243C499.1608,-206.1243 466.0062,-193.945 437.9595,-183.6422"/>
<polygon fill="#000000" stroke="#000000" points="438.8646,-180.246 428.2711,-180.0831 436.4509,-186.8167 438.8646,-180.246"/>
</g>
<!-- [root] aws_instance.my&#45;ec2&#45;vm (expand)&#45;&gt;[root] data.aws_ami.amzlinux (expand) -->
<g id="edge5" class="edge">
<title>[root] aws_instance.my-ec2-vm (expand)-&gt;[root] data.aws_ami.amzlinux (expand)</title>
<path fill="none" stroke="#000000" d="M620.4663,-215.8314C644.7543,-206.1162 674.8369,-194.0831 700.3967,-183.8592"/>
<polygon fill="#000000" stroke="#000000" points="701.9649,-187.0016 709.9498,-180.038 699.3651,-180.5023 701.9649,-187.0016"/>
</g>
<!-- [root] aws_instance.my&#45;ec2&#45;vm (expand)&#45;&gt;[root] var.instance_type -->
<g id="edge6" class="edge">
<title>[root] aws_instance.my-ec2-vm (expand)-&gt;[root] var.instance_type</title>
<path fill="none" stroke="#000000" d="M654.457,-219.0637C704.3363,-209.3616 770.2076,-195.9675 837.0044,-180.1806"/>
<polygon fill="#000000" stroke="#000000" points="837.9465,-183.5542 846.8646,-177.8342 836.3259,-176.7444 837.9465,-183.5542"/>
</g>
<!-- [root] provider[&quot;registry.terraform.io/hashicorp/aws&quot;] -->
<g id="node6" class="node">
<title>[root] provider["registry.terraform.io/hashicorp/aws"]</title>
<polygon fill="none" stroke="#000000" points="575.0447,-108 300.0543,-90 575.0447,-72 850.0352,-90 575.0447,-108"/>
<text text-anchor="middle" x="575.0447" y="-85.8" font-family="Times,serif" font-size="14.00" fill="#000000">provider["registry.terraform.io/hashicorp/aws"]</text>
</g>
<!-- [root] aws_security_group.vpc&#45;ssh (expand)&#45;&gt;[root] provider[&quot;registry.terraform.io/hashicorp/aws&quot;] -->
<g id="edge7" class="edge">
<title>[root] aws_security_group.vpc-ssh (expand)-&gt;[root] provider["registry.terraform.io/hashicorp/aws"]</title>
<path fill="none" stroke="#000000" d="M575.0447,-143.8314C575.0447,-136.131 575.0447,-126.9743 575.0447,-118.4166"/>
<polygon fill="#000000" stroke="#000000" points="578.5448,-118.4132 575.0447,-108.4133 571.5448,-118.4133 578.5448,-118.4132"/>
</g>
<!-- [root] aws_security_group.vpc&#45;web (expand)&#45;&gt;[root] provider[&quot;registry.terraform.io/hashicorp/aws&quot;] -->
<g id="edge8" class="edge">
<title>[root] aws_security_group.vpc-web (expand)-&gt;[root] provider["registry.terraform.io/hashicorp/aws"]</title>
<path fill="none" stroke="#000000" d="M428.2508,-143.9243C457.3884,-133.2207 494.2522,-119.6789 523.7484,-108.8435"/>
<polygon fill="#000000" stroke="#000000" points="525.2674,-112.0143 533.4473,-105.2807 522.8537,-105.4436 525.2674,-112.0143"/>
</g>
<!-- [root] data.aws_ami.amzlinux (expand)&#45;&gt;[root] provider[&quot;registry.terraform.io/hashicorp/aws&quot;] -->
<g id="edge9" class="edge">
<title>[root] data.aws_ami.amzlinux (expand)-&gt;[root] provider["registry.terraform.io/hashicorp/aws"]</title>
<path fill="none" stroke="#000000" d="M709.6231,-143.8314C683.2803,-133.2942 650.1207,-120.0304 623.3087,-109.3056"/>
<polygon fill="#000000" stroke="#000000" points="624.3268,-105.9433 613.7421,-105.479 621.727,-112.4426 624.3268,-105.9433"/>
</g>
<!-- [root] var.aws_region -->
<g id="node7" class="node">
<title>[root] var.aws_region</title>
<polygon fill="none" stroke="#000000" points="619.9516,-36 524.1379,-36 524.1379,0 625.9516,0 625.9516,-30 619.9516,-36"/>
<polyline fill="none" stroke="#000000" points="619.9516,-36 619.9516,-30 "/>
<polyline fill="none" stroke="#000000" points="625.9516,-30 619.9516,-30 "/>
<text text-anchor="middle" x="575.0447" y="-13.8" font-family="Times,serif" font-size="14.00" fill="#000000">var.aws_region</text>
</g>
<!-- [root] provider[&quot;registry.terraform.io/hashicorp/aws&quot;]&#45;&gt;[root] var.aws_region -->
<g id="edge14" class="edge">
<title>[root] provider["registry.terraform.io/hashicorp/aws"]-&gt;[root] var.aws_region</title>
<path fill="none" stroke="#000000" d="M575.0447,-71.8314C575.0447,-64.131 575.0447,-54.9743 575.0447,-46.4166"/>
<polygon fill="#000000" stroke="#000000" points="578.5448,-46.4132 575.0447,-36.4133 571.5448,-46.4133 578.5448,-46.4132"/>
</g>
<!-- [root] output.ec2_instance_publicip (expand) -->
<g id="node9" class="node">
<title>[root] output.ec2_instance_publicip (expand)</title>
<ellipse fill="none" stroke="#000000" cx="514.0447" cy="-306" rx="185.7257" ry="18"/>
<text text-anchor="middle" x="514.0447" y="-301.8" font-family="Times,serif" font-size="14.00" fill="#000000">[root] output.ec2_instance_publicip (expand)</text>
</g>
<!-- [root] output.ec2_instance_publicip (expand)&#45;&gt;[root] aws_instance.my&#45;ec2&#45;vm (expand) -->
<g id="edge10" class="edge">
<title>[root] output.ec2_instance_publicip (expand)-&gt;[root] aws_instance.my-ec2-vm (expand)</title>
<path fill="none" stroke="#000000" d="M529.4376,-287.8314C536.5351,-279.454 545.0928,-269.3531 552.8687,-260.1749"/>
<polygon fill="#000000" stroke="#000000" points="555.6508,-262.3056 559.4446,-252.4133 550.3099,-257.7807 555.6508,-262.3056"/>
</g>
<!-- [root] output.ec2_publicdns (expand) -->
<g id="node10" class="node">
<title>[root] output.ec2_publicdns (expand)</title>
<ellipse fill="none" stroke="#000000" cx="155.0447" cy="-306" rx="155.0895" ry="18"/>
<text text-anchor="middle" x="155.0447" y="-301.8" font-family="Times,serif" font-size="14.00" fill="#000000">[root] output.ec2_publicdns (expand)</text>
</g>
<!-- [root] output.ec2_publicdns (expand)&#45;&gt;[root] aws_instance.my&#45;ec2&#45;vm (expand) -->
<g id="edge11" class="edge">
<title>[root] output.ec2_publicdns (expand)-&gt;[root] aws_instance.my-ec2-vm (expand)</title>
<path fill="none" stroke="#000000" d="M242.069,-291.0816C313.3229,-278.8666 413.7411,-261.652 485.6357,-249.3273"/>
<polygon fill="#000000" stroke="#000000" points="486.3202,-252.7611 495.585,-247.6217 485.1374,-245.8617 486.3202,-252.7611"/>
</g>
<!-- [root] provider[&quot;registry.terraform.io/hashicorp/aws&quot;] (close) -->
<g id="node11" class="node">
<title>[root] provider["registry.terraform.io/hashicorp/aws"] (close)</title>
<ellipse fill="none" stroke="#000000" cx="965.0447" cy="-306" rx="247.2168" ry="18"/>
<text text-anchor="middle" x="965.0447" y="-301.8" font-family="Times,serif" font-size="14.00" fill="#000000">[root] provider["registry.terraform.io/hashicorp/aws"] (close)</text>
</g>
<!-- [root] provider[&quot;registry.terraform.io/hashicorp/aws&quot;] (close)&#45;&gt;[root] aws_instance.my&#45;demo&#45;vm (expand) -->
<g id="edge12" class="edge">
<title>[root] provider["registry.terraform.io/hashicorp/aws"] (close)-&gt;[root] aws_instance.my-demo-vm (expand)</title>
<path fill="none" stroke="#000000" d="M949.6519,-287.8314C942.5544,-279.454 933.9967,-269.3531 926.2207,-260.1749"/>
<polygon fill="#000000" stroke="#000000" points="928.7795,-257.7807 919.6449,-252.4133 923.4386,-262.3056 928.7795,-257.7807"/>
</g>
<!-- [root] provider[&quot;registry.terraform.io/hashicorp/aws&quot;] (close)&#45;&gt;[root] aws_instance.my&#45;ec2&#45;vm (expand) -->
<g id="edge13" class="edge">
<title>[root] provider["registry.terraform.io/hashicorp/aws"] (close)-&gt;[root] aws_instance.my-ec2-vm (expand)</title>
<path fill="none" stroke="#000000" d="M874.0993,-289.2101C810.8583,-277.5348 726.9676,-262.0473 664.1356,-250.4476"/>
<polygon fill="#000000" stroke="#000000" points="664.708,-246.9941 654.2387,-248.6204 663.4371,-253.8778 664.708,-246.9941"/>
</g>
<!-- [root] root -->
<g id="node12" class="node">
<title>[root] root</title>
<ellipse fill="none" stroke="#000000" cx="514.0447" cy="-378" rx="50.9823" ry="18"/>
<text text-anchor="middle" x="514.0447" y="-373.8" font-family="Times,serif" font-size="14.00" fill="#000000">[root] root</text>
</g>
<!-- [root] root&#45;&gt;[root] output.ec2_instance_publicip (expand) -->
<g id="edge15" class="edge">
<title>[root] root-&gt;[root] output.ec2_instance_publicip (expand)</title>
<path fill="none" stroke="#000000" d="M514.0447,-359.8314C514.0447,-352.131 514.0447,-342.9743 514.0447,-334.4166"/>
<polygon fill="#000000" stroke="#000000" points="517.5448,-334.4132 514.0447,-324.4133 510.5448,-334.4133 517.5448,-334.4132"/>
</g>
<!-- [root] root&#45;&gt;[root] output.ec2_publicdns (expand) -->
<g id="edge16" class="edge">
<title>[root] root-&gt;[root] output.ec2_publicdns (expand)</title>
<path fill="none" stroke="#000000" d="M469.6642,-369.0992C413.3147,-357.7979 314.7975,-338.0396 242.9833,-323.6367"/>
<polygon fill="#000000" stroke="#000000" points="243.5275,-320.1762 233.0344,-321.6414 242.1509,-327.0395 243.5275,-320.1762"/>
</g>
<!-- [root] root&#45;&gt;[root] provider[&quot;registry.terraform.io/hashicorp/aws&quot;] (close) -->
<g id="edge17" class="edge">
<title>[root] root-&gt;[root] provider["registry.terraform.io/hashicorp/aws"] (close)</title>
<path fill="none" stroke="#000000" d="M560.611,-370.5659C628.7948,-359.6807 757.8928,-339.0708 851.9432,-324.0561"/>
<polygon fill="#000000" stroke="#000000" points="852.7566,-327.4707 862.0797,-322.4379 851.653,-320.5582 852.7566,-327.4707"/>
</g>
</g>
</svg>